<?xml version="1.0" standalone="no"?>
<!DOCTYPE svg PUBLIC "-//W3C//DTD SVG 20010904//EN"
 "http://www.w3.org/TR/2001/REC-SVG-20010904/DTD/svg10.dtd">
<svg version="1.0" xmlns="http://www.w3.org/2000/svg"
 width="302.000000pt" height="219.000000pt" viewBox="0 0 302.000000 219.000000"
 preserveAspectRatio="xMidYMid meet">

<g transform="translate(0.000000,219.000000) scale(0.100000,-0.100000)"
fill="#000000" stroke="none">
<path d="M1710 1785 l0 -85 275 0 275 0 0 85 0 85 -275 0 -275 0 0 -85z"/>
<path d="M640 1395 l0 -275 515 0 515 0 0 275 0 275 -515 0 -515 0 0 -275z"/>
<path d="M1910 1405 c0 -228 -1 -235 -20 -235 -19 0 -20 7 -20 155 l0 155 -80
0 -80 0 0 -185 0 -185 275 0 275 0 0 210 0 210 -75 0 -75 0 0 -180 c0 -153 -2
-180 -15 -180 -13 0 -15 33 -15 235 l0 235 -85 0 -85 0 0 -235z m140 180 c0
-24 -3 -25 -60 -25 -57 0 -60 1 -60 25 0 24 3 25 60 25 57 0 60 -1 60 -25z m0
-100 c0 -24 -3 -25 -60 -25 -57 0 -60 1 -60 25 0 24 3 25 60 25 57 0 60 -1 60
-25z m180 -50 l0 -55 -45 0 -45 0 0 55 0 55 45 0 45 0 0 -55z m-450 -30 c0
-31 -3 -35 -25 -35 -22 0 -25 4 -25 35 0 31 3 35 25 35 22 0 25 -4 25 -35z
m70 0 c0 -31 -3 -35 -25 -35 -22 0 -25 4 -25 35 0 31 3 35 25 35 22 0 25 -4
25 -35z m200 -20 c0 -24 -3 -25 -60 -25 -57 0 -60 1 -60 25 0 24 3 25 60 25
57 0 60 -1 60 -25z m180 -100 l0 -55 -45 0 -45 0 0 55 0 55 45 0 45 0 0 -55z
m-450 0 c0 -31 -3 -35 -25 -35 -22 0 -25 4 -25 35 0 31 3 35 25 35 22 0 25 -4
25 -35z m70 0 c0 -31 -3 -35 -25 -35 -22 0 -25 4 -25 35 0 31 3 35 25 35 22 0
25 -4 25 -35z m200 0 c0 -24 -3 -25 -60 -25 -57 0 -60 1 -60 25 0 24 3 25 60
25 57 0 60 -1 60 -25z"/>
<path d="M1530 734 c0 -121 4 -203 11 -216 13 -24 67 -48 109 -48 28 0 30 2
30 38 0 29 -5 39 -22 47 -22 10 -23 14 -26 193 l-2 182 -50 0 -50 0 0 -196z"/>
<path d="M500 695 l0 -225 50 0 50 0 0 80 0 80 33 0 c31 0 33 -4 66 -80 l33
-80 49 0 c27 0 49 2 49 5 0 2 -18 43 -39 89 l-39 85 23 15 c51 33 57 159 12
212 -28 32 -79 43 -194 44 l-93 0 0 -225z m200 115 c24 -24 25 -48 4 -78 -13
-19 -24 -22 -57 -20 -42 3 -42 3 -45 47 -2 24 -1 50 2 57 8 22 73 17 96 -6z"/>
<path d="M1756 836 c-6 -36 -12 -45 -31 -50 -21 -5 -25 -13 -25 -41 0 -30 3
-35 24 -35 23 0 23 -2 18 -69 -5 -75 10 -136 36 -150 9 -5 43 -12 75 -16 l57
-7 0 41 c0 36 -3 41 -23 41 -37 0 -47 19 -47 92 l0 68 35 0 c34 0 35 1 35 39
0 37 -2 40 -32 43 -31 3 -33 6 -36 46 -3 42 -4 42 -41 42 -38 0 -39 -1 -45
-44z"/>
<path d="M923 784 c-42 -21 -58 -64 -58 -156 0 -62 5 -83 21 -105 31 -41 92
-58 173 -47 65 9 66 9 69 42 l3 32 -76 0 c-69 0 -76 2 -84 23 -8 21 -6 22 62
28 57 4 73 10 88 28 28 34 25 103 -5 138 -21 24 -32 28 -92 30 -49 3 -78 -1
-101 -13z m120 -75 c19 -30 1 -49 -44 -49 -40 0 -41 1 -34 27 3 15 12 31 18
35 18 12 49 5 60 -13z"/>
<path d="M1285 796 c-5 -3 -27 -7 -47 -11 -34 -5 -38 -9 -38 -35 l0 -30 75 0
c63 0 76 -3 85 -19 5 -11 10 -22 10 -24 0 -2 -28 -7 -63 -10 -81 -8 -95 -14
-112 -48 -37 -71 2 -149 75 -149 11 0 38 7 60 16 38 15 42 15 53 -1 9 -11 24
-16 47 -13 l35 3 0 132 c0 130 -1 133 -26 159 -21 20 -38 26 -85 30 -32 2 -63
2 -69 0z m85 -211 c0 -29 -4 -36 -25 -41 -31 -8 -53 0 -62 22 -8 22 30 54 63
54 21 0 24 -5 24 -35z"/>
<path d="M2035 792 c-40 -14 -56 -29 -70 -68 -29 -79 -13 -188 31 -223 36 -28
105 -36 167 -20 67 18 87 53 87 152 0 88 -19 133 -64 152 -36 15 -114 18 -151
7z m105 -91 c5 -11 10 -41 10 -66 0 -57 -14 -85 -43 -85 -37 0 -50 16 -54 66
-7 70 9 104 46 104 20 0 34 -7 41 -19z"/>
<path d="M2440 773 c-26 -21 -33 -24 -41 -12 -5 8 -9 17 -9 22 0 4 -18 7 -40
7 l-40 0 0 -160 0 -160 50 0 50 0 0 98 c0 63 4 102 12 110 7 7 31 12 55 12
l43 0 0 55 c0 52 -2 55 -24 55 -14 0 -39 -12 -56 -27z"/>
<path d="M400 274 l0 -65 43 3 42 3 1 50 c2 61 -8 75 -52 75 l-34 0 0 -66z
m65 31 c0 -13 -8 -21 -22 -23 -19 -3 -23 1 -23 23 0 22 4 26 23 23 14 -2 22
-10 22 -23z m10 -60 c0 -14 -8 -21 -27 -23 -24 -3 -28 0 -28 23 0 23 4 26 28
23 19 -2 27 -9 27 -23z"/>
<path d="M1530 329 c0 -5 5 -7 10 -4 6 3 10 8 10 11 0 2 -4 4 -10 4 -5 0 -10
-5 -10 -11z"/>
<path d="M739 320 c-3 -8 -3 -35 0 -60 5 -39 9 -45 31 -47 22 -2 23 -2 5 6
-15 6 -21 20 -25 62 -3 30 -8 47 -11 39z"/>
<path d="M1462 275 c3 -56 5 -60 28 -62 l25 -3 -24 10 c-21 9 -23 15 -18 49 2
21 1 45 -4 52 -6 9 -8 -8 -7 -46z"/>
<path d="M538 299 c-12 -6 -18 -22 -18 -44 0 -28 4 -36 25 -41 13 -3 30 -4 37
-1 7 3 1 6 -14 6 -25 1 -28 5 -28 36 0 23 6 38 16 42 16 6 37 -15 28 -29 -3
-4 0 -8 5 -8 17 0 13 37 -5 44 -21 8 -26 7 -46 -5z"/>
<path d="M643 303 c-25 -10 -14 -41 19 -52 34 -12 30 -26 -12 -34 -17 -3 -13
-5 10 -4 28 2 36 7 38 24 3 17 -3 23 -28 28 -35 8 -35 26 1 36 19 6 20 7 4 7
-11 0 -26 -2 -32 -5z"/>
<path d="M903 299 c11 -6 17 -22 17 -44 0 -31 -3 -35 -26 -35 -24 0 -26 3 -22
40 2 28 0 40 -9 40 -9 0 -13 -19 -13 -65 0 -37 4 -65 10 -65 6 0 10 9 10 19 0
15 8 21 33 23 29 3 32 6 35 42 3 39 -8 56 -38 56 -12 -1 -11 -3 3 -11z"/>
<path d="M993 303 c-20 -4 -23 -11 -23 -49 0 -24 5 -44 10 -44 6 0 10 18 10
40 0 29 4 40 15 40 8 0 15 5 15 10 0 6 -1 9 -2 9 -2 -1 -13 -4 -25 -6z"/>
<path d="M1052 301 c-8 -5 -12 -23 -10 -47 3 -37 5 -39 38 -39 33 0 35 2 38
39 3 39 -8 56 -38 56 -8 0 -21 -4 -28 -9z m56 -44 c3 -37 2 -38 -25 -35 -20 2
-29 9 -31 26 -5 36 5 54 30 50 19 -2 24 -10 26 -41z"/>
<path d="M1208 294 c33 -23 27 -69 -8 -69 -22 0 -25 4 -25 38 0 20 -3 37 -7
37 -5 0 -7 -30 -7 -67 1 -38 4 -58 6 -46 3 16 13 23 36 25 29 3 32 6 35 42 3
39 -8 56 -38 56 -9 0 -6 -6 8 -16z"/>
<path d="M1313 299 c9 -5 17 -17 17 -24 0 -8 5 -15 10 -15 18 0 11 29 -9 40
-25 13 -42 13 -18 -1z"/>
<path d="M1398 303 c-14 -4 -18 -14 -16 -51 1 -45 1 -46 5 -8 3 27 10 40 24
43 10 3 19 9 19 14 0 9 -4 10 -32 2z"/>
<path d="M1592 301 c-8 -5 -12 -23 -10 -47 3 -37 5 -39 38 -41 34 -1 34 -1 5
5 -26 6 -30 12 -30 42 0 41 32 57 42 21 6 -24 23 -28 23 -6 0 8 -9 19 -19 25
-24 12 -32 12 -49 1z"/>
<path d="M1694 295 c-19 -15 -19 -15 0 -30 11 -8 26 -15 33 -15 25 0 13 -29
-14 -33 -26 -4 -26 -4 2 -3 23 1 31 6 33 23 3 17 -3 24 -23 29 -31 8 -28 26 6
35 21 6 21 7 3 8 -11 1 -29 -6 -40 -14z"/>
<path d="M1883 298 c9 -7 18 -31 20 -53 l4 -40 1 46 c2 35 -2 48 -14 53 -25
10 -29 7 -11 -6z"/>
<path d="M1958 299 c-21 -12 -24 -59 -6 -77 7 -7 26 -11 43 -11 l30 1 -30 7
c-26 5 -30 10 -30 41 0 28 4 35 20 35 13 0 20 -6 19 -17 -1 -10 2 -18 7 -18
16 0 10 38 -7 44 -21 8 -26 7 -46 -5z"/>
<path d="M2079 301 c36 -10 36 -27 1 -35 -26 -5 -31 -10 -28 -28 2 -16 11 -24
28 -25 l25 -3 -23 10 c-28 12 -24 34 6 38 18 3 22 -2 22 -22 0 -14 5 -26 10
-26 14 0 12 74 -2 88 -7 7 -23 12 -37 11 l-26 -1 24 -7z"/>
<path d="M2183 303 c-20 -4 -23 -11 -23 -49 0 -24 5 -44 10 -44 6 0 10 18 10
40 0 29 4 40 15 40 8 0 15 5 15 10 0 6 -1 9 -2 9 -2 -1 -13 -4 -25 -6z"/>
<path d="M2382 301 c-8 -5 -12 -23 -10 -47 3 -37 5 -39 38 -39 33 0 35 2 38
39 3 39 -8 56 -38 56 -8 0 -21 -4 -28 -9z m53 -41 c0 -31 -3 -35 -25 -35 -19
0 -26 6 -28 23 -5 36 5 54 30 50 19 -2 23 -9 23 -38z"/>
<path d="M1270 261 c0 -41 12 -52 53 -50 16 1 14 3 -8 8 -27 6 -30 10 -29 44
0 20 -3 37 -8 37 -4 0 -8 -18 -8 -39z"/>
<path d="M1530 255 c0 -25 5 -45 10 -45 6 0 10 20 10 45 0 25 -4 45 -10 45 -5
0 -10 -20 -10 -45z"/>
<path d="M1830 255 c0 -25 4 -45 9 -45 5 0 11 20 13 45 2 31 -1 45 -9 45 -9 0
-13 -16 -13 -45z"/>
<path d="M2270 295 c0 -3 7 -22 15 -43 9 -21 13 -48 10 -62 -11 -42 10 -9 33
53 12 31 17 57 12 57 -4 0 -11 -13 -15 -30 -9 -41 -22 -46 -30 -10 -6 25 -25
53 -25 35z"/>
<path d="M2480 266 c0 -38 20 -60 47 -53 14 4 13 5 -4 6 -20 1 -23 7 -23 41 0
22 -4 40 -10 40 -5 0 -10 -15 -10 -34z"/>
<path d="M2550 255 c0 -25 5 -45 10 -45 6 0 10 20 10 45 0 25 -4 45 -10 45 -5
0 -10 -20 -10 -45z"/>
<path d="M2600 220 c0 -5 5 -10 10 -10 6 0 10 5 10 10 0 6 -4 10 -10 10 -5 0
-10 -4 -10 -10z"/>
</g>
</svg>
